<?xml version="1.0"?>
<svg xmlns="http://www.w3.org/2000/svg" xmlns:xlink="http://www.w3.org/1999/xlink" xmlns:svgjs="http://svgjs.com/svgjs" version="1.1" width="512" height="512" x="0" y="0" viewBox="0 0 464.96831 464.96831" style="enable-background:new 0 0 512 512" xml:space="preserve" class=""><g><path xmlns="http://www.w3.org/2000/svg" d="m88.96875 225.9375 150.0625 150.0625c9.371094 9.371094 24.566406 9.371094 33.9375 0 4.503906-4.5 7.03125-10.609375 7.03125-16.976562v-78.054688l144-144 12 12c6.628906 6.625 17.371094 6.625 24 0 6.625-6.628906 6.625-17.371094 0-24l-120-120c-6.628906-6.625-17.371094-6.625-24 0-6.625 6.628906-6.625 17.371094 0 24l12 12-144 144h-78.054688c-6.367187 0-12.476562 2.527344-16.976562 7.03125-9.371094 9.371094-9.371094 24.5625 0 33.9375zm0 0" fill="#160505" data-original="#3fa9f5" style="" class=""/><path xmlns="http://www.w3.org/2000/svg" d="m176 312.96875-120.679688 120.679688c-15.261718 15.261718-34.382812 26.085937-55.320312 31.320312 5.234375-20.9375 16.058594-40.058594 31.320312-55.320312l120.679688-120.679688zm0 0" fill="#000000" data-original="#cccccc" style="" class=""/></g></svg>
